<mxfile host="app.diagrams.net" modified="2021-07-05T10:21:46.282Z" agent="5.0 (Macintosh; Intel Mac OS X 10_14_6) AppleWebKit/537.36 (KHTML, like Gecko) Chrome/91.0.4472.114 Safari/537.36" etag="baqHqHw6BWf_65TXHfPg" version="14.8.2" type="github">
  <diagram id="nYQA_SCFP9z7AsmTdMuE" name="第 1 页">
    <mxGraphModel dx="1977" dy="1193" grid="1" gridSize="10" guides="1" tooltips="1" connect="1" arrows="1" fold="1" page="1" pageScale="1" pageWidth="3300" pageHeight="2339" math="0" shadow="0">
      <root>
        <mxCell id="0" />
        <mxCell id="1" parent="0" />
        <mxCell id="pK-iJ0P--daHXMUOZHyA-3" style="edgeStyle=orthogonalEdgeStyle;rounded=0;orthogonalLoop=1;jettySize=auto;html=1;exitX=1;exitY=0.5;exitDx=0;exitDy=0;fontColor=#FFFFFF;" edge="1" parent="1" source="pK-iJ0P--daHXMUOZHyA-1" target="pK-iJ0P--daHXMUOZHyA-2">
          <mxGeometry relative="1" as="geometry" />
        </mxCell>
        <mxCell id="pK-iJ0P--daHXMUOZHyA-1" value="&lt;pre style=&quot;font-family: menlo, monospace; font-size: 12pt;&quot;&gt;&lt;span style=&quot;font-style: italic;&quot;&gt;LoginRegisterActivity&lt;/span&gt;&lt;/pre&gt;" style="rounded=1;whiteSpace=wrap;html=1;fillColor=#cce5ff;fontColor=#FFFFFF;labelBackgroundColor=none;strokeColor=#CCE5FF;" vertex="1" parent="1">
          <mxGeometry x="220" y="490" width="260" height="50" as="geometry" />
        </mxCell>
        <mxCell id="pK-iJ0P--daHXMUOZHyA-9" style="edgeStyle=orthogonalEdgeStyle;rounded=0;orthogonalLoop=1;jettySize=auto;html=1;exitX=1;exitY=0.5;exitDx=0;exitDy=0;entryX=0;entryY=0.5;entryDx=0;entryDy=0;fontColor=#000000;" edge="1" parent="1" source="pK-iJ0P--daHXMUOZHyA-2" target="pK-iJ0P--daHXMUOZHyA-6">
          <mxGeometry relative="1" as="geometry" />
        </mxCell>
        <mxCell id="pK-iJ0P--daHXMUOZHyA-10" style="edgeStyle=orthogonalEdgeStyle;rounded=0;orthogonalLoop=1;jettySize=auto;html=1;exitX=1;exitY=0.5;exitDx=0;exitDy=0;entryX=0;entryY=0.5;entryDx=0;entryDy=0;fontColor=#000000;" edge="1" parent="1" source="pK-iJ0P--daHXMUOZHyA-2" target="pK-iJ0P--daHXMUOZHyA-7">
          <mxGeometry relative="1" as="geometry" />
        </mxCell>
        <mxCell id="pK-iJ0P--daHXMUOZHyA-11" style="edgeStyle=orthogonalEdgeStyle;rounded=0;orthogonalLoop=1;jettySize=auto;html=1;exitX=1;exitY=0.5;exitDx=0;exitDy=0;entryX=0;entryY=0.5;entryDx=0;entryDy=0;fontColor=#000000;" edge="1" parent="1" source="pK-iJ0P--daHXMUOZHyA-2" target="pK-iJ0P--daHXMUOZHyA-8">
          <mxGeometry relative="1" as="geometry" />
        </mxCell>
        <mxCell id="pK-iJ0P--daHXMUOZHyA-2" value="&lt;pre style=&quot;font-family: menlo, monospace; font-size: 12pt;&quot;&gt;LoginFirstFragment&lt;/pre&gt;" style="rounded=1;whiteSpace=wrap;html=1;labelBackgroundColor=none;fontColor=#FFFFFF;fillColor=#CCE5FF;strokeColor=#CCE5FF;" vertex="1" parent="1">
          <mxGeometry x="560" y="490" width="200" height="50" as="geometry" />
        </mxCell>
        <mxCell id="pK-iJ0P--daHXMUOZHyA-4" value="&lt;font color=&quot;#000000&quot;&gt;登录页Activity&lt;/font&gt;" style="text;html=1;align=center;verticalAlign=middle;resizable=0;points=[];autosize=1;strokeColor=none;fontColor=#FFFFFF;" vertex="1" parent="1">
          <mxGeometry x="295" y="560" width="90" height="20" as="geometry" />
        </mxCell>
        <mxCell id="pK-iJ0P--daHXMUOZHyA-5" value="展现的第一个Fragment&lt;br&gt;" style="text;html=1;align=center;verticalAlign=middle;resizable=0;points=[];autosize=1;strokeColor=none;" vertex="1" parent="1">
          <mxGeometry x="590" y="560" width="140" height="20" as="geometry" />
        </mxCell>
        <mxCell id="pK-iJ0P--daHXMUOZHyA-6" value="&lt;pre style=&quot;font-family: &amp;#34;menlo&amp;#34; , monospace ; font-size: 12pt&quot;&gt;H5页面&lt;/pre&gt;" style="rounded=1;whiteSpace=wrap;html=1;fillColor=#fff2cc;strokeColor=#d6b656;labelBackgroundColor=none;fontColor=#FFFFFF;" vertex="1" parent="1">
          <mxGeometry x="820" y="380" width="200" height="50" as="geometry" />
        </mxCell>
        <mxCell id="pK-iJ0P--daHXMUOZHyA-20" style="edgeStyle=orthogonalEdgeStyle;rounded=0;orthogonalLoop=1;jettySize=auto;html=1;exitX=1;exitY=0.5;exitDx=0;exitDy=0;entryX=0;entryY=0.5;entryDx=0;entryDy=0;fontColor=#000000;" edge="1" parent="1" source="pK-iJ0P--daHXMUOZHyA-7" target="pK-iJ0P--daHXMUOZHyA-18">
          <mxGeometry relative="1" as="geometry" />
        </mxCell>
        <mxCell id="pK-iJ0P--daHXMUOZHyA-21" style="edgeStyle=orthogonalEdgeStyle;rounded=0;orthogonalLoop=1;jettySize=auto;html=1;exitX=1;exitY=0.5;exitDx=0;exitDy=0;entryX=0;entryY=0.5;entryDx=0;entryDy=0;fontColor=#000000;" edge="1" parent="1" source="pK-iJ0P--daHXMUOZHyA-7" target="pK-iJ0P--daHXMUOZHyA-19">
          <mxGeometry relative="1" as="geometry" />
        </mxCell>
        <mxCell id="pK-iJ0P--daHXMUOZHyA-7" value="&lt;pre style=&quot;font-family: &amp;#34;menlo&amp;#34; , monospace ; font-size: 12pt&quot;&gt;&lt;pre style=&quot;font-family: &amp;#34;menlo&amp;#34; , monospace ; font-size: 12pt&quot;&gt;&lt;span style=&quot;font-style: italic&quot;&gt;LoginFragment&lt;/span&gt;&lt;/pre&gt;&lt;/pre&gt;" style="rounded=1;whiteSpace=wrap;html=1;labelBackgroundColor=none;fontColor=#FFFFFF;fillColor=#CCE5FF;strokeColor=#CCE5FF;" vertex="1" parent="1">
          <mxGeometry x="820" y="490" width="200" height="50" as="geometry" />
        </mxCell>
        <mxCell id="pK-iJ0P--daHXMUOZHyA-8" value="&lt;pre style=&quot;font-family: &amp;#34;menlo&amp;#34; , monospace ; font-size: 12pt&quot;&gt;H5页面&lt;/pre&gt;" style="rounded=1;whiteSpace=wrap;html=1;fillColor=#fff2cc;strokeColor=#d6b656;labelBackgroundColor=none;fontColor=#FFFFFF;" vertex="1" parent="1">
          <mxGeometry x="820" y="600" width="200" height="50" as="geometry" />
        </mxCell>
        <mxCell id="pK-iJ0P--daHXMUOZHyA-12" value="乐刻相关协议" style="text;html=1;align=center;verticalAlign=middle;resizable=0;points=[];autosize=1;strokeColor=none;" vertex="1" parent="1">
          <mxGeometry x="875" y="440" width="90" height="20" as="geometry" />
        </mxCell>
        <mxCell id="pK-iJ0P--daHXMUOZHyA-13" value="下一步" style="text;html=1;align=center;verticalAlign=middle;resizable=0;points=[];autosize=1;strokeColor=none;" vertex="1" parent="1">
          <mxGeometry x="895" y="550" width="50" height="20" as="geometry" />
        </mxCell>
        <mxCell id="pK-iJ0P--daHXMUOZHyA-14" value="遇到问题" style="text;html=1;align=center;verticalAlign=middle;resizable=0;points=[];autosize=1;strokeColor=none;" vertex="1" parent="1">
          <mxGeometry x="890" y="660" width="60" height="20" as="geometry" />
        </mxCell>
        <mxCell id="pK-iJ0P--daHXMUOZHyA-27" style="edgeStyle=orthogonalEdgeStyle;rounded=0;orthogonalLoop=1;jettySize=auto;html=1;exitX=1;exitY=0.5;exitDx=0;exitDy=0;entryX=0;entryY=0.5;entryDx=0;entryDy=0;fontColor=#000000;" edge="1" parent="1" source="pK-iJ0P--daHXMUOZHyA-18" target="pK-iJ0P--daHXMUOZHyA-26">
          <mxGeometry relative="1" as="geometry">
            <Array as="points">
              <mxPoint x="1400" y="450" />
              <mxPoint x="1400" y="515" />
            </Array>
          </mxGeometry>
        </mxCell>
        <mxCell id="pK-iJ0P--daHXMUOZHyA-18" value="&lt;pre style=&quot;font-family: &amp;#34;menlo&amp;#34; , monospace ; font-size: 12pt&quot;&gt;&lt;pre style=&quot;font-family: &amp;#34;menlo&amp;#34; , monospace ; font-size: 12pt&quot;&gt;&lt;pre style=&quot;font-family: &amp;#34;menlo&amp;#34; , monospace ; font-size: 12pt&quot;&gt;&lt;span style=&quot;font-style: italic&quot;&gt;InputCaptchaFragment&lt;/span&gt;&lt;/pre&gt;&lt;/pre&gt;&lt;/pre&gt;" style="rounded=1;whiteSpace=wrap;html=1;labelBackgroundColor=none;fontColor=#FFFFFF;fillColor=#CCE5FF;strokeColor=#CCE5FF;" vertex="1" parent="1">
          <mxGeometry x="1080" y="425" width="200" height="50" as="geometry" />
        </mxCell>
        <mxCell id="pK-iJ0P--daHXMUOZHyA-28" style="edgeStyle=orthogonalEdgeStyle;rounded=0;orthogonalLoop=1;jettySize=auto;html=1;exitX=1;exitY=0.5;exitDx=0;exitDy=0;entryX=0;entryY=0.5;entryDx=0;entryDy=0;fontColor=#000000;" edge="1" parent="1" source="pK-iJ0P--daHXMUOZHyA-19" target="pK-iJ0P--daHXMUOZHyA-26">
          <mxGeometry relative="1" as="geometry">
            <Array as="points">
              <mxPoint x="1400" y="585" />
              <mxPoint x="1400" y="515" />
            </Array>
          </mxGeometry>
        </mxCell>
        <mxCell id="pK-iJ0P--daHXMUOZHyA-32" style="edgeStyle=orthogonalEdgeStyle;rounded=0;orthogonalLoop=1;jettySize=auto;html=1;exitX=1;exitY=0.5;exitDx=0;exitDy=0;entryX=0.5;entryY=0;entryDx=0;entryDy=0;fontColor=#000000;" edge="1" parent="1" source="pK-iJ0P--daHXMUOZHyA-19" target="pK-iJ0P--daHXMUOZHyA-31">
          <mxGeometry relative="1" as="geometry" />
        </mxCell>
        <mxCell id="pK-iJ0P--daHXMUOZHyA-19" value="&lt;pre style=&quot;font-family: &amp;#34;menlo&amp;#34; , monospace ; font-size: 12pt&quot;&gt;&lt;pre style=&quot;font-family: &amp;#34;menlo&amp;#34; , monospace ; font-size: 12pt&quot;&gt;&lt;pre style=&quot;font-family: &amp;#34;menlo&amp;#34; , monospace ; font-size: 12pt&quot;&gt;&lt;span style=&quot;font-style: italic&quot;&gt;InputPwdFragment&lt;/span&gt;&lt;/pre&gt;&lt;/pre&gt;&lt;/pre&gt;" style="rounded=1;whiteSpace=wrap;html=1;labelBackgroundColor=none;fontColor=#FFFFFF;fillColor=#CCE5FF;strokeColor=#CCE5FF;" vertex="1" parent="1">
          <mxGeometry x="1080" y="560" width="200" height="50" as="geometry" />
        </mxCell>
        <mxCell id="pK-iJ0P--daHXMUOZHyA-22" value="输入验证码" style="text;html=1;align=center;verticalAlign=middle;resizable=0;points=[];autosize=1;strokeColor=none;" vertex="1" parent="1">
          <mxGeometry x="1140" y="395" width="80" height="20" as="geometry" />
        </mxCell>
        <mxCell id="pK-iJ0P--daHXMUOZHyA-23" value="输入密码" style="text;html=1;align=center;verticalAlign=middle;resizable=0;points=[];autosize=1;strokeColor=none;" vertex="1" parent="1">
          <mxGeometry x="1150" y="620" width="60" height="20" as="geometry" />
        </mxCell>
        <mxCell id="pK-iJ0P--daHXMUOZHyA-26" value="&lt;pre style=&quot;font-family: &amp;#34;menlo&amp;#34; , monospace ; font-size: 12pt&quot;&gt;&lt;pre style=&quot;font-family: &amp;#34;menlo&amp;#34; , monospace ; font-size: 12pt&quot;&gt;&lt;span style=&quot;font-style: italic&quot;&gt;登录成功&lt;/span&gt;&lt;/pre&gt;&lt;/pre&gt;" style="rounded=1;whiteSpace=wrap;html=1;labelBackgroundColor=none;fontColor=#FFFFFF;fillColor=#CCE5FF;strokeColor=#CCE5FF;" vertex="1" parent="1">
          <mxGeometry x="1480" y="490" width="200" height="50" as="geometry" />
        </mxCell>
        <mxCell id="pK-iJ0P--daHXMUOZHyA-30" value="找回密码" style="text;html=1;align=center;verticalAlign=middle;resizable=0;points=[];autosize=1;strokeColor=none;fontColor=#000000;" vertex="1" parent="1">
          <mxGeometry x="1330" y="640" width="60" height="20" as="geometry" />
        </mxCell>
        <mxCell id="pK-iJ0P--daHXMUOZHyA-34" style="edgeStyle=orthogonalEdgeStyle;rounded=0;orthogonalLoop=1;jettySize=auto;html=1;exitX=1;exitY=0.5;exitDx=0;exitDy=0;entryX=0.5;entryY=1;entryDx=0;entryDy=0;fontColor=#000000;" edge="1" parent="1" source="pK-iJ0P--daHXMUOZHyA-31" target="pK-iJ0P--daHXMUOZHyA-26">
          <mxGeometry relative="1" as="geometry" />
        </mxCell>
        <mxCell id="pK-iJ0P--daHXMUOZHyA-31" value="&lt;pre style=&quot;font-family: &amp;#34;menlo&amp;#34; , monospace ; font-size: 12pt&quot;&gt;&lt;pre style=&quot;font-family: &amp;#34;menlo&amp;#34; , monospace ; font-size: 12pt&quot;&gt;&lt;span style=&quot;font-style: italic&quot;&gt;NewForgetPwdActivity&lt;/span&gt;&lt;/pre&gt;&lt;/pre&gt;" style="rounded=1;whiteSpace=wrap;html=1;fillColor=#fff2cc;strokeColor=#d6b656;labelBackgroundColor=none;fontColor=#FFFFFF;" vertex="1" parent="1">
          <mxGeometry x="1290" y="699" width="220" height="50" as="geometry" />
        </mxCell>
        <mxCell id="pK-iJ0P--daHXMUOZHyA-33" value="设置密码" style="text;html=1;align=center;verticalAlign=middle;resizable=0;points=[];autosize=1;strokeColor=none;fontColor=#000000;" vertex="1" parent="1">
          <mxGeometry x="1370" y="760" width="60" height="20" as="geometry" />
        </mxCell>
      </root>
    </mxGraphModel>
  </diagram>
</mxfile>
